# Blender 3.4.1
# www.blender.org
mtllib TrebleCleff.mtl
o Plane
v -1.000000 0.000000 1.000000
v 1.000000 0.000000 1.000000
v -1.000000 0.000000 -1.000000
v 1.000000 0.000000 -1.000000
v -1.000000 -0.010000 1.000000
v 1.000000 -0.010000 1.000000
v -1.000000 -0.010000 -1.000000
v 1.000000 -0.010000 -1.000000
vn -0.0000 1.0000 -0.0000
vn -0.0000 -1.0000 -0.0000
vn -1.0000 -0.0000 -0.0000
vn -0.0000 -0.0000 1.0000
vn 1.0000 -0.0000 -0.0000
vn -0.0000 -0.0000 -1.0000
vt 0.000000 0.000000
vt 1.000000 0.000000
vt 0.000000 1.000000
vt 1.000000 1.000000
vt 0.000000 0.000000
vt 1.000000 0.000000
vt 0.000000 1.000000
vt 1.000000 1.000000
s 0
f 1/1/1 2/2/1 4/4/1 3/3/1
f 5/5/2 7/7/2 8/8/2 6/6/2
f 1/1/3 3/3/3 7/7/3 5/5/3
f 2/2/4 1/1/4 5/5/4 6/6/4
f 4/4/5 2/2/5 6/6/5 8/8/5
f 3/3/6 4/4/6 8/8/6 7/7/6
o path0
o path1
o path2
o path0.001
o path1.001
o path2.001
o trbleCleff
v 4.114571 3.146760 0.000000
v 4.143601 3.187860 0.000000
v 4.181409 3.225127 0.000000
v 4.226611 3.258203 0.000000
v 4.277819 3.286728 0.000000
v 4.333648 3.310341 0.000000
v 4.392711 3.328684 0.000000
v 4.453623 3.341396 0.000000
v 4.514997 3.348117 0.000000
v 4.575448 3.348488 0.000000
v 4.633589 3.342148 0.000000
v 4.688034 3.328739 0.000000
v 4.737396 3.307900 0.000000
v 4.784032 3.278001 0.000000
v 4.825321 3.241419 0.000000
v 4.861209 3.199120 0.000000
v 4.891641 3.152073 0.000000
v 4.916561 3.101245 0.000000
v 4.935913 3.047604 0.000000
v 4.949644 2.992119 0.000000
v 4.957697 2.935756 0.000000
v 4.960017 2.879484 0.000000
v 4.956549 2.824271 0.000000
v 4.947238 2.771085 0.000000
v 4.932029 2.720892 0.000000
v 4.907217 2.662799 0.000000
v 4.876574 2.604907 0.000000
v 4.840489 2.548021 0.000000
v 4.799353 2.492949 0.000000
v 4.753555 2.440497 0.000000
v 4.703484 2.391471 0.000000
v 4.649529 2.346677 0.000000
v 4.592083 2.306923 0.000000
v 4.531532 2.273013 0.000000
v 4.468267 2.245756 0.000000
v 4.402678 2.225956 0.000000
v 4.335155 2.214421 0.000000
v 4.275157 2.212476 0.000000
v 4.215781 2.218667 0.000000
v 4.157282 2.232176 0.000000
v 4.099915 2.252186 0.000000
v 4.043934 2.277879 0.000000
v 3.989596 2.308439 0.000000
v 3.937155 2.343047 0.000000
v 3.886866 2.380887 0.000000
v 3.838984 2.421140 0.000000
v 3.793764 2.462990 0.000000
v 3.751461 2.505619 0.000000
v 3.712330 2.548210 0.000000
v 3.673580 2.599174 0.000000
v 3.642648 2.654927 0.000000
v 3.619243 2.714599 0.000000
v 3.603076 2.777324 0.000000
v 3.593854 2.842234 0.000000
v 3.591287 2.908461 0.000000
v 3.595084 2.975137 0.000000
v 3.604955 3.041394 0.000000
v 3.620608 3.106364 0.000000
v 3.641753 3.169181 0.000000
v 3.668099 3.228975 0.000000
v 3.699355 3.284880 0.000000
v 3.763791 3.377877 0.000000
v 3.836132 3.465972 0.000000
v 3.914855 3.550112 0.000000
v 3.998439 3.631250 0.000000
v 4.085362 3.710335 0.000000
v 4.174104 3.788318 0.000000
v 4.263142 3.866148 0.000000
v 4.350956 3.944777 0.000000
v 4.436025 4.025154 0.000000
v 4.516827 4.108230 0.000000
v 4.591840 4.194954 0.000000
v 4.659543 4.286279 0.000000
v 4.694515 4.348295 0.000000
v 4.722483 4.419344 0.000000
v 4.742992 4.496890 0.000000
v 4.755588 4.578398 0.000000
v 4.759814 4.661335 0.000000
v 4.755216 4.743164 0.000000
v 4.741338 4.821352 0.000000
v 4.717724 4.893364 0.000000
v 4.683920 4.956666 0.000000
v 4.639470 5.008721 0.000000
v 4.583919 5.046996 0.000000
v 4.516812 5.068956 0.000000
v 4.439411 5.069922 0.000000
v 4.375704 5.045210 0.000000
v 4.324568 4.998440 0.000000
v 4.284877 4.933237 0.000000
v 4.255505 4.853222 0.000000
v 4.235327 4.762019 0.000000
v 4.223219 4.663249 0.000000
v 4.218054 4.560534 0.000000
v 4.218708 4.457499 0.000000
v 4.224055 4.357765 0.000000
v 4.232969 4.264954 0.000000
v 4.244327 4.182690 0.000000
v 4.268433 4.028014 0.000000
v 4.291024 3.873153 0.000000
v 4.312183 3.718123 0.000000
v 4.331995 3.562940 0.000000
v 4.350540 3.407622 0.000000
v 4.367904 3.252185 0.000000
v 4.384169 3.096646 0.000000
v 4.399419 2.941022 0.000000
v 4.413738 2.785330 0.000000
v 4.427207 2.629586 0.000000
v 4.439912 2.473808 0.000000
v 4.451935 2.318011 0.000000
v 4.459005 2.239214 0.000000
v 4.467685 2.155615 0.000000
v 4.476281 2.068871 0.000000
v 4.483098 1.980639 0.000000
v 4.486443 1.892579 0.000000
v 4.484620 1.806348 0.000000
v 4.475935 1.723605 0.000000
v 4.458694 1.646007 0.000000
v 4.431202 1.575213 0.000000
v 4.391765 1.512881 0.000000
v 4.338688 1.460668 0.000000
v 4.270277 1.420234 0.000000
v 4.211593 1.403547 0.000000
v 4.144786 1.400111 0.000000
v 4.072782 1.408484 0.000000
v 3.998505 1.427222 0.000000
v 3.924879 1.454881 0.000000
v 3.854829 1.490018 0.000000
v 3.791279 1.531189 0.000000
v 3.737155 1.576951 0.000000
v 3.695381 1.625861 0.000000
v 3.668881 1.676476 0.000000
v 3.660581 1.727350 0.000000
v 3.673404 1.777043 0.000000
v 3.686480 1.796007 0.000000
v 3.704731 1.812207 0.000000
v 3.727248 1.825594 0.000000
v 3.753121 1.836121 0.000000
v 3.781441 1.843739 0.000000
v 3.811300 1.848400 0.000000
v 3.841787 1.850056 0.000000
v 3.871994 1.848659 0.000000
v 3.901012 1.844160 0.000000
v 3.927933 1.836512 0.000000
v 3.951845 1.825665 0.000000
v 3.971841 1.811572 0.000000
v 3.989634 1.790754 0.000000
v 4.002343 1.765275 0.000000
v 4.010170 1.736310 0.000000
v 4.013315 1.705031 0.000000
v 4.011978 1.672612 0.000000
v 4.006360 1.640226 0.000000
v 3.996662 1.609047 0.000000
v 3.983084 1.580247 0.000000
v 3.965827 1.555001 0.000000
v 3.945091 1.534481 0.000000
v 3.921078 1.519861 0.000000
v 3.893988 1.512314 0.000000
v 3.866460 1.512465 0.000000
v 3.839949 1.519399 0.000000
v 3.814826 1.532223 0.000000
v 3.791463 1.550047 0.000000
v 3.770228 1.571976 0.000000
v 3.751493 1.597120 0.000000
v 3.735628 1.624586 0.000000
v 3.723005 1.653483 0.000000
v 3.713993 1.682918 0.000000
v 3.708962 1.711999 0.000000
v 3.708285 1.739835 0.000000
v 3.712330 1.765533 0.000000
v 3.720559 1.786172 0.000000
v 3.733572 1.806102 0.000000
v 3.750667 1.824932 0.000000
v 3.771137 1.842274 0.000000
v 3.794279 1.857737 0.000000
v 3.819386 1.870931 0.000000
v 3.845755 1.881467 0.000000
v 3.872679 1.888955 0.000000
v 3.899456 1.893005 0.000000
v 3.925378 1.893228 0.000000
v 3.949741 1.889234 0.000000
v 3.971841 1.880633 0.000000
v 3.999287 1.859721 0.000000
v 4.019905 1.831083 0.000000
v 4.033950 1.796450 0.000000
v 4.041680 1.757555 0.000000
v 4.043352 1.716130 0.000000
v 4.039220 1.673906 0.000000
v 4.029543 1.632617 0.000000
v 4.014578 1.593994 0.000000
v 3.994581 1.559769 0.000000
v 3.969808 1.531674 0.000000
v 3.940516 1.511442 0.000000
v 3.906963 1.500804 0.000000
v 3.874580 1.502869 0.000000
v 3.846405 1.517719 0.000000
v 3.822704 1.543081 0.000000
v 3.803746 1.576679 0.000000
v 3.789800 1.616240 0.000000
v 3.781135 1.659490 0.000000
v 3.778018 1.704156 0.000000
v 3.780719 1.747962 0.000000
v 3.789505 1.788636 0.000000
v 3.804645 1.823904 0.000000
v 3.826407 1.851490 0.000000
v 3.855061 1.869123 0.000000
v 3.878705 1.873847 0.000000
v 3.902236 1.871241 0.000000
v 3.925226 1.862250 0.000000
v 3.947243 1.847823 0.000000
v 3.967857 1.828908 0.000000
v 3.986637 1.806452 0.000000
v 4.003154 1.781403 0.000000
v 4.016976 1.754709 0.000000
v 4.027674 1.727317 0.000000
v 4.034817 1.700175 0.000000
v 4.037975 1.674231 0.000000
v 4.036718 1.650433 0.000000
v 4.031780 1.633591 0.000000
v 4.022916 1.617979 0.000000
v 4.010631 1.603675 0.000000
v 3.995426 1.590760 0.000000
v 3.977806 1.579310 0.000000
v 3.958274 1.569406 0.000000
v 3.937333 1.561126 0.000000
v 3.915486 1.554549 0.000000
v 3.893237 1.549753 0.000000
v 3.871089 1.546818 0.000000
v 3.849545 1.545822 0.000000
v 3.829110 1.546844 0.000000
v 3.806346 1.551611 0.000000
v 3.785266 1.560629 0.000000
v 3.765958 1.573359 0.000000
v 3.748509 1.589257 0.000000
v 3.733007 1.607782 0.000000
v 3.719540 1.628393 0.000000
v 3.708196 1.650548 0.000000
v 3.699061 1.673706 0.000000
v 3.692225 1.697325 0.000000
v 3.687774 1.720863 0.000000
v 3.685796 1.743780 0.000000
v 3.686379 1.765533 0.000000
v 3.690564 1.784651 0.000000
v 3.699244 1.803108 0.000000
v 3.711844 1.820635 0.000000
v 3.727791 1.836962 0.000000
v 3.746511 1.851821 0.000000
v 3.767429 1.864943 0.000000
v 3.789972 1.876059 0.000000
v 3.813565 1.884900 0.000000
v 3.837635 1.891198 0.000000
v 3.861607 1.894684 0.000000
v 3.884908 1.895088 0.000000
v 3.906963 1.892142 0.000000
v 3.936750 1.878343 0.000000
v 3.957780 1.853731 0.000000
v 3.970641 1.820631 0.000000
v 3.975926 1.781363 0.000000
v 3.974221 1.738250 0.000000
v 3.966118 1.693613 0.000000
v 3.952205 1.649774 0.000000
v 3.933072 1.609056 0.000000
v 3.909309 1.573780 0.000000
v 3.881505 1.546268 0.000000
v 3.850251 1.528841 0.000000
v 3.816134 1.523824 0.000000
v 3.795089 1.529940 0.000000
v 3.780348 1.544455 0.000000
v 3.771463 1.565667 0.000000
v 3.767986 1.591873 0.000000
v 3.769467 1.621370 0.000000
v 3.775459 1.652458 0.000000
v 3.785513 1.683433 0.000000
v 3.799181 1.712593 0.000000
v 3.816013 1.738236 0.000000
v 3.835561 1.758661 0.000000
v 3.857377 1.772163 0.000000
v 3.881012 1.777043 0.000000
v 3.897677 1.773811 0.000000
v 3.910976 1.764796 0.000000
v 3.921009 1.751020 0.000000
v 3.927878 1.733505 0.000000
v 3.931683 1.713272 0.000000
v 3.932525 1.691343 0.000000
v 3.930506 1.668740 0.000000
v 3.925725 1.646484 0.000000
v 3.918284 1.625598 0.000000
v 3.908285 1.607103 0.000000
v 3.895827 1.592021 0.000000
v 3.881012 1.581373 0.000000
v 3.866612 1.578254 0.000000
v 3.855499 1.584100 0.000000
v 3.847589 1.597282 0.000000
v 3.842800 1.616169 0.000000
v 3.841050 1.639131 0.000000
v 3.842257 1.664539 0.000000
v 3.846338 1.690761 0.000000
v 3.853209 1.716169 0.000000
v 3.862790 1.739131 0.000000
v 3.874998 1.758017 0.000000
v 3.889750 1.771198 0.000000
v 3.906963 1.777043 0.000000
v 3.919308 1.775795 0.000000
v 3.930105 1.770222 0.000000
v 3.939262 1.761062 0.000000
v 3.946690 1.749052 0.000000
v 3.952296 1.734930 0.000000
v 3.955990 1.719434 0.000000
v 3.957681 1.703302 0.000000
v 3.957279 1.687271 0.000000
v 3.954692 1.672081 0.000000
v 3.949829 1.658467 0.000000
v 3.942600 1.647169 0.000000
v 3.932914 1.638924 0.000000
v 3.922062 1.634925 0.000000
v 3.913360 1.636594 0.000000
v 3.906577 1.643126 0.000000
v 3.901483 1.653722 0.000000
v 3.897850 1.667579 0.000000
v 3.895446 1.683895 0.000000
v 3.894043 1.701870 0.000000
v 3.893410 1.720700 0.000000
v 3.893318 1.739586 0.000000
v 3.893537 1.757724 0.000000
v 3.893837 1.774314 0.000000
v 3.893988 1.788553 0.000000
v 3.893733 1.795124 0.000000
v 3.893027 1.796093 0.000000
v 3.891960 1.792257 0.000000
v 3.890624 1.784417 0.000000
v 3.889107 1.773372 0.000000
v 3.887500 1.759921 0.000000
v 3.885893 1.744864 0.000000
v 3.884376 1.728999 0.000000
v 3.883039 1.713126 0.000000
v 3.881973 1.698045 0.000000
v 3.881267 1.684554 0.000000
v 3.881012 1.673453 0.000000
v 0.148654 0.000000 -0.113729
v 0.148265 0.000000 -0.113102
v 0.147914 0.000000 -0.112450
v 0.147601 0.000000 -0.111776
v 0.147324 0.000000 -0.111082
v 0.147083 0.000000 -0.110373
v 0.146878 0.000000 -0.109650
v 0.146706 0.000000 -0.108916
v 0.146567 0.000000 -0.108175
v 0.146461 0.000000 -0.107430
v 0.146386 0.000000 -0.106684
v 0.146342 0.000000 -0.105939
v 0.146327 0.000000 -0.105199
l 9 10
l 266 267
l 13 14
l 270 271
l 17 18
l 274 275
l 21 22
l 278 279
l 25 26
l 282 283
l 29 30
l 286 287
l 33 34
l 290 291
l 37 38
l 294 295
l 41 42
l 298 299
l 45 46
l 302 303
l 49 50
l 306 307
l 53 54
l 310 311
l 57 58
l 314 315
l 61 62
l 318 319
l 65 66
l 322 323
l 69 70
l 326 327
l 73 74
l 330 331
l 77 78
l 334 335
l 81 82
l 338 339
l 85 86
l 342 343
l 89 90
l 346 347
l 93 94
l 350 351
l 97 98
l 354 355
l 101 102
l 105 106
l 109 110
l 113 114
l 117 118
l 121 122
l 125 126
l 129 130
l 133 134
l 137 138
l 141 142
l 145 146
l 149 150
l 153 154
l 157 158
l 161 162
l 165 166
l 169 170
l 173 174
l 177 178
l 181 182
l 185 186
l 189 190
l 193 194
l 197 198
l 201 202
l 205 206
l 209 210
l 213 214
l 217 218
l 221 222
l 225 226
l 229 230
l 233 234
l 237 238
l 241 242
l 245 246
l 249 250
l 253 254
l 257 258
l 261 262
l 265 266
l 10 11
l 269 270
l 14 15
l 273 274
l 18 19
l 277 278
l 22 23
l 281 282
l 26 27
l 285 286
l 30 31
l 289 290
l 34 35
l 293 294
l 38 39
l 297 298
l 42 43
l 301 302
l 46 47
l 305 306
l 50 51
l 309 310
l 54 55
l 313 314
l 58 59
l 317 318
l 62 63
l 321 322
l 66 67
l 325 326
l 70 71
l 329 330
l 74 75
l 333 334
l 78 79
l 337 338
l 82 83
l 341 342
l 86 87
l 90 91
l 349 350
l 94 95
l 353 354
l 98 99
l 357 358
l 102 103
l 106 107
l 110 111
l 114 115
l 118 119
l 122 123
l 126 127
l 130 131
l 134 135
l 138 139
l 142 143
l 146 147
l 150 151
l 154 155
l 158 159
l 162 163
l 166 167
l 170 171
l 174 175
l 178 179
l 182 183
l 186 187
l 190 191
l 194 195
l 198 199
l 202 203
l 206 207
l 210 211
l 214 215
l 218 219
l 222 223
l 226 227
l 230 231
l 234 235
l 238 239
l 242 243
l 246 247
l 250 251
l 254 255
l 258 259
l 262 263
l 264 265
l 11 12
l 268 269
l 15 16
l 272 273
l 19 20
l 276 277
l 23 24
l 280 281
l 27 28
l 284 285
l 31 32
l 288 289
l 35 36
l 292 293
l 39 40
l 296 297
l 43 44
l 300 301
l 47 48
l 304 305
l 51 52
l 308 309
l 55 56
l 312 313
l 59 60
l 316 317
l 63 64
l 320 321
l 67 68
l 324 325
l 71 72
l 328 329
l 75 76
l 332 333
l 79 80
l 336 337
l 83 84
l 340 341
l 87 88
l 344 345
l 91 92
l 348 349
l 95 96
l 352 353
l 99 100
l 356 357
l 103 104
l 107 108
l 111 112
l 115 116
l 119 120
l 123 124
l 127 128
l 131 132
l 135 136
l 139 140
l 143 144
l 147 148
l 151 152
l 155 156
l 159 160
l 163 164
l 167 168
l 171 172
l 175 176
l 179 180
l 183 184
l 187 188
l 191 192
l 195 196
l 199 200
l 203 204
l 207 208
l 211 212
l 215 216
l 219 220
l 223 224
l 227 228
l 231 232
l 235 236
l 239 240
l 243 244
l 247 248
l 251 252
l 255 256
l 259 260
l 263 264
l 267 268
l 12 13
l 271 272
l 16 17
l 275 276
l 20 21
l 279 280
l 24 25
l 283 284
l 28 29
l 287 288
l 32 33
l 291 292
l 36 37
l 295 296
l 40 41
l 299 300
l 44 45
l 303 304
l 48 49
l 307 308
l 52 53
l 311 312
l 56 57
l 315 316
l 60 61
l 319 320
l 64 65
l 323 324
l 68 69
l 327 328
l 72 73
l 331 332
l 76 77
l 335 336
l 80 81
l 339 340
l 84 85
l 343 344
l 88 89
l 347 348
l 92 93
l 351 352
l 96 97
l 355 356
l 100 101
l 104 105
l 108 109
l 112 113
l 116 117
l 120 121
l 124 125
l 128 129
l 132 133
l 136 137
l 140 141
l 144 145
l 148 149
l 152 153
l 156 157
l 160 161
l 164 165
l 168 169
l 172 173
l 176 177
l 180 181
l 184 185
l 188 189
l 192 193
l 196 197
l 200 201
l 204 205
l 208 209
l 212 213
l 216 217
l 220 221
l 224 225
l 228 229
l 232 233
l 236 237
l 240 241
l 244 245
l 248 249
l 252 253
l 256 257
l 260 261
